<?xml version="1.0" encoding="UTF-8"?>
<svg id="Capa_2" data-name="Capa 2" xmlns="http://www.w3.org/2000/svg" viewBox="0 0 1027.62 692.22">
  <defs>
    <style>
      .cls-1 {
        fill: #203366;
      }

      .cls-1, .cls-2 {
        stroke-width: 0px;
      }

      .cls-2 {
        fill: #f30102;
      }
    </style>
  </defs>
  <g id="Capa_1-2" data-name="Capa 1">
    <g id="PIqhzd">
      <g>
        <path class="cls-1" d="m412.42,200.54c5.98-1.79,11.55-5,17.39-6.66,10.02-2.84,19.63-6.7,29.4-10.13,18.38-6.44,36.64-13.21,54.94-19.88,1.11-.41,2.16-.8,3.35-.52-.03,35.35-.08,70.7-.07,106.05,0,5.3.25,10.6.38,15.9-1.54,2.18-1.71-.34-2.01-.77-6.41-9.29-13.02-18.45-18.89-28.07-1.92-3.14-3.96-4.66-7.23-4.99-9.07-.9-17.61-4.26-26.57-5.67-6.79-1.07-13.62-2.06-20.31-3.6-4.1-.94-8.08-2.45-12.21-3.43-2.42-.58-3.32-.19-3.51,2.31-.46,6.11-1.07,12.21-1.62,18.31-.2,2.23,1.7,3.13,2.94,4.34,17.69,17.14,35.37,34.3,53.23,51.26,2.6,2.46,2.92,4.51,1.93,7.75-5.56,18.23-10.9,36.53-16.29,54.81-1.05,3.56-1.99,7.14-2.97,10.72-.88,3.21-2.21,4.55-5.86,2.78-10.05-4.86-19.61-10.48-28.63-17.07-2.41-1.76-2.85-3.41-1.99-6.29,3.09-10.31,5.65-20.77,8.86-31.04.97-3.1.33-4.85-1.76-6.97-17.62-17.93-34.81-36.31-52.91-53.74-6.33-6.09-6.65-11.82-5.31-19.55,1.88-10.86,5.21-21.35,7.27-32.18,2.22-11.73,5.23-23.47,7.78-35.22,1.33-6.13,2.31-12.33,4.58-18.96,6.17,5.31,12.14,10.47,18.12,15.62,1.33,1.14.54,2.36.29,3.65-.72,3.72-2.55,7.21-2.24,11.13,0,0-.19.05-.19.05l.09.04Z"/>
        <path class="cls-2" d="m517.8,285.32c-.13-5.3-.38-10.6-.38-15.9,0-35.35.04-70.7.07-106.05,6,.76,11.36,3.53,16.94,5.53,28.43,10.19,56.79,20.57,85.19,30.87.93.34,1.91.52,3.59.96-1-3.98-1.8-7.58-2.83-11.11-.56-1.91-.61-3.33,1.13-4.78,5.62-4.67,11.1-9.51,17.37-14.92,1.92,8.67,3.73,16.62,5.43,24.59,4.89,22.88,9.68,45.79,14.66,68.65.78,3.57.27,6.03-2.48,8.8-18.87,19.03-37.48,38.32-56.28,57.43-2.24,2.28-2.98,4.24-1.99,7.43,3.18,10.3,5.92,20.74,9.02,31.06,1.03,3.44.58,5.61-2.64,7.82-9.08,6.23-18.5,11.75-28.54,16.26-2.81,1.26-3.84.74-4.71-2.24-6.55-22.45-13.16-44.89-20.05-67.24-1.19-3.87.39-5.81,2.76-8.09,17.53-16.84,34.97-33.77,52.56-50.55,2.27-2.17,3.27-4.22,2.82-7.37-.72-4.94-1.02-9.93-1.5-14.9-.22-2.35-.9-3.44-3.78-2.81-19.93,4.4-39.91,8.62-59.88,12.81-2.81.59-4.66,1.99-6.21,4.4-5.57,8.67-11.29,17.25-17.05,25.8-.88,1.3-1.29,3.15-3.2,3.57Z"/>
        <path class="cls-1" d="m263.53,460.56c0,1.92,0,3.51,0,5.09,0,23.15-.07,46.3.07,69.44.02,3.28-.87,4.29-4.17,4.18-6.82-.24-13.65-.16-20.48-.02-2.53.05-3.48-.65-3.47-3.36.08-39.3.07-78.6,0-117.91,0-2.54.68-3.55,3.35-3.5,7.49.13,14.99.2,22.48-.04,3.04-.1,3.97,1.95,5.28,3.76,15.92,21.92,31.81,43.86,47.71,65.79,1.07,1.48,2.18,2.94,3.34,4.5,1.44-1.25.71-2.82.71-4.14.06-21.82.12-43.63-.03-65.45-.02-3.44.8-4.61,4.38-4.45,6.65.3,13.32.17,19.98.03,2.6-.05,3.84.39,3.84,3.47-.1,39.3-.09,78.6,0,117.91,0,2.97-1.04,3.59-3.73,3.51-5.82-.17-11.66-.24-17.48.02-3.04.14-4.81-.98-6.53-3.38-17.04-23.79-34.19-47.5-51.33-71.21-1.02-1.41-1.7-3.16-3.94-4.24Z"/>
        <path class="cls-1" d="m999.35,489.33c0-3.12,0-4.71,0-6.3,0-21.33.06-42.66-.07-63.99-.02-3.3.57-4.76,4.29-4.58,6.65.31,13.33.21,19.99.03,2.92-.08,4.06.59,4.05,3.81-.11,39.16-.1,78.32,0,117.48,0,2.86-.87,3.97-3.66,3.55-.16-.02-.33,0-.5,0-7-.02-15.02,2.07-20.7-.67-5.32-2.57-8.17-10.26-12.09-15.7-14.08-19.5-28.15-39-42.23-58.5-.86-1.19-1.76-2.36-2.7-3.61-1.52,1.4-.79,2.98-.79,4.34-.06,22.83-.14,45.66.04,68.49.03,4.16-.66,6.02-5.39,5.64-5.96-.48-12-.36-17.98-.03-3.92.21-5.06-.93-5.03-4.94.17-30.33.09-60.66.09-90.98,0-8.17.18-16.34-.08-24.49-.11-3.61,1.15-4.53,4.56-4.4,6.82.24,13.67.21,20.49.03,2.66-.07,4.2.88,5.71,2.99,9.88,13.8,19.9,27.49,29.86,41.23,7.1,9.8,14.18,19.61,22.16,30.63Z"/>
        <path class="cls-1" d="m824.68,412.94c35.14-.23,58.35,13.76,67.86,37.45,10.5,26.16,4.63,60.93-20.88,78.39-10.27,7.03-21.21,10.67-33.48,11.66-11.28.91-22.17-.14-32.74-4.15-23.39-8.86-38.19-30.01-39.14-55.05-.87-23.1,6.04-42.53,25.31-56.46,11.88-8.59,25.42-11.89,33.08-11.84Zm7.11,28.01c-21.8-.59-35.07,17.2-34.62,36.02.51,21.33,13.78,35.66,34.35,35.92,20.5.26,34.8-14.49,34.83-35.92.03-21.58-13.83-36.02-34.56-36.02Z"/>
        <path class="cls-1" d="m670.11,487c4.72,6.23,9.12,12.48,14,18.32,4.04,4.83,9.26,8.02,15.81,8.41,2.31.14,3.42.52,2.79,3.56-1.21,5.83-1.79,11.81-2.33,17.76-.31,3.4-1.67,4.31-5.07,4.18-15.59-.57-27.78-7.08-36.32-20.16-5.17-7.92-10.16-15.97-15.26-23.94-1.37-2.14-9.7-3.9-11.62-2.45-1.28.97-.72,2.47-.73,3.73-.04,12.82-.15,25.64.06,38.46.06,3.54-.99,4.4-4.46,4.44-7.08.09-14.16-.83-21.26.58-2.5.5-4.09-1.21-4.06-4.54.2-20.15.1-40.29.1-60.44,0-18.65.08-37.3-.08-55.95-.03-3.36.62-4.62,4.29-4.5,17.63.55,35.34-1.13,52.9.87,29.74,3.38,43.49,35.09,26.07,59.48-3.75,5.24-8.82,8.97-14.84,12.19Zm-38.76-33.11c0,4,.18,8.01-.06,11.99-.18,2.94.95,3.68,3.68,3.54,4.15-.21,8.34.13,12.49-.17,8.12-.59,13.34-6.08,13.92-14.27.57-8-3.58-13.77-11.36-15.83-5.09-1.35-10.28-.27-15.4-.7-2.76-.23-3.4.96-3.3,3.45.16,3.99.04,8,.04,11.99Z"/>
        <path class="cls-1" d="m576.18,457.16c0,11.66.05,23.31-.01,34.97-.15,28.12-17.07,46.01-45.04,48.37-13.8,1.16-26.97-.64-39-7.36-12.13-6.78-17.5-18.4-19.71-31.64-1.43-8.6-.68-17.29-.74-25.93-.1-15.15-.14-30.31.06-45.46.05-3.36-1.27-6.46-1.09-9.77.19-3.62,1.02-6.21,5.72-5.9,5.97.39,11.98.1,17.98.1,7.37,0,7.72.59,7.42,7.88-.96,23.28-.5,46.57-.25,69.86.11,10.44,6.64,20.3,22.03,20.65,13.09.3,22.19-6.83,22.99-19.63.77-12.44.39-24.96.44-37.45.05-12.16.17-24.32-.08-36.47-.08-4,1.22-5.1,5.07-4.92,6.48.3,12.99.29,19.48.01,3.68-.16,5,.9,4.82,4.71-.3,6.31-.08,12.65-.09,18.98,0,6.33,0,12.66,0,18.98Z"/>
        <path class="cls-1" d="m128.74,476.96c0-19.33.08-38.65-.07-57.98-.03-3.42.82-4.56,4.41-4.53,24.49.16,48.98.14,73.47.01,3.28-.02,4.32.86,4.17,4.18-.27,5.99-.27,12,0,17.99.15,3.22-.99,3.83-3.95,3.8-14.66-.15-29.32.04-43.98-.14-3.37-.04-4.72.64-4.49,4.31.33,5.31.28,10.67.02,15.98-.16,3.14.86,3.9,3.9,3.86,13.66-.16,27.32.07,40.98-.16,3.61-.06,4.51,1.05,4.32,4.47-.28,5.32-.31,10.67,0,15.98.22,3.65-.71,4.8-4.57,4.72-13.49-.27-26.99-.01-40.48-.18-3.18-.04-4.35.73-4.17,4.09.29,5.48.24,11,.02,16.49-.12,2.95.99,3.56,3.7,3.54,15.16-.11,30.32.04,45.48-.13,3.25-.04,4.29.81,4.14,4.11-.27,6.15-.19,12.33-.03,18.49.07,2.63-.8,3.38-3.42,3.37-25.32-.09-50.65-.12-75.97.02-3.59.02-3.53-1.79-3.52-4.33.05-19.33.03-38.65.03-57.98Z"/>
        <path class="cls-1" d="m608.78,179.74c.28,1.2-.03,2.07-1.42,1.78-2.87-.61-5.84-1.05-8.55-2.11-12.81-5.04-25.96-9.04-38.95-13.53-9.51-3.28-19.04-6.41-28.71-9.09-1.97-.55-3.26-1.92-5.06-2.64-5.4-2.15-10.39-2.76-16.16-.48-10.28,4.08-21.05,6.91-31.38,10.89-15.95,6.14-32.59,10.15-48.52,16.27-4.52,1.74-4.25.01-3.56-3.33,6.32-30.81,25.41-50.29,54.36-60.66,36.81-13.19,70.98-7.58,101.83,16.17,14.37,11.06,22.12,26.63,25.79,44.26.17.81.23,1.65.34,2.47Z"/>
        <path class="cls-1" d="m60.48,413c19.84-.17,35.64,5.16,47.6,19.65,2.36,2.86,2.59,4.56-.77,6.89-5.46,3.78-10.63,8-15.74,12.26-2.02,1.69-3,1.4-4.73-.45-9.64-10.28-23.43-13.61-35.85-8.91-11.59,4.39-18.84,16.16-19.67,30.33-1.27,21.67,11.49,35.33,26.85,39.12,13.34,3.3,26.09,1.02,38.13-5.02,3.78-1.9,4.93-1.05,6.33,2.41,2.3,5.68,5.04,11.18,7.68,16.72,1.09,2.29.87,3.61-1.67,4.96-9.81,5.21-20.17,8.18-31.2,9.48-8.48,1-16.87.8-25.21-.3-10.13-1.33-19.24-6.02-27.55-11.53-11.82-7.84-19.21-19.88-22.62-33.13-2.67-10.38-2.44-21.61-1.02-32.66,2.4-18.68,12.56-32.23,27.71-41.74,9.82-6.17,21.48-8.62,31.72-8.08Z"/>
        <path class="cls-1" d="m394.79,489.77c0-14.99-.15-29.98.1-44.97.06-3.89-1.16-4.7-4.77-4.59-8.49.26-16.99,0-25.48.14-2.56.04-3.53-.62-3.46-3.32.17-6.32.13-12.66.01-18.98-.04-2.42.45-3.57,3.26-3.57,29.98.09,59.96.08,89.94,0,2.72,0,3.4,1,3.35,3.5-.12,6.33-.13,12.66,0,18.98.06,2.59-.8,3.43-3.43,3.38-8.32-.15-16.67.22-24.98-.17-4.37-.21-5.08,1.3-5.05,5.28.17,29.48-.02,58.96.21,88.44.04,4.54-1.21,5.66-5.53,5.4-6.31-.38-12.68-.47-18.97.03-4.75.38-5.37-1.48-5.3-5.6.24-14.65.09-29.31.09-43.97Z"/>
        <path class="cls-1" d="m717.29,476.35c0-19.14.08-38.29-.07-57.43-.03-3.41.79-4.63,4.39-4.47,6.81.3,13.66.34,20.47-.01,4.08-.21,4.97,1.24,4.95,5.06-.14,28.8-.08,57.6-.08,86.4,0,9.82-.11,19.64.06,29.46.05,3.08-.92,4-3.97,3.91-7.15-.21-14.32-.27-21.47.02-3.62.15-4.37-1.12-4.35-4.5.15-19.48.07-38.95.07-58.43Z"/>
        <path class="cls-1" d="m519.81,0c9.26,19.77,18.13,38.85,27.18,57.85,1.04,2.17.69,3.58-.5,5.39-4.19,6.4-8.18,12.92-12.36,19.32-1.28,1.96-1.82,3.08,1.11,4.08,4.37,1.49,7.02,4.85,8.17,9.36.5,1.96,0,2.83-2.18,2.38-7.76-1.62-15.67-2.25-23.53-1.92-7.16.3-14.38.6-22.2,2.29,1.81-5.62,2.61-10.93,9.04-12.26,2.72-.56,2.37-1.8,1.08-3.75-4.3-6.52-8.36-13.2-12.66-19.72-1.12-1.7-1.36-3-.44-4.93,9.05-19.08,17.99-38.22,27.3-58.08Z"/>
        <path class="cls-2" d="m192.15,575.08c15.85.33,26.61,11.06,26.37,26.29-.24,15.43-11.96,26.21-28.07,25.84-15.2-.36-26.13-11.54-25.84-26.45.3-15.56,11.51-26.01,27.54-25.68Zm13.33,26.16c.05-8.95-5.41-14.89-13.74-14.93-8.38-.04-14.21,5.92-14.24,14.58-.04,8.8,5.56,14.84,13.9,14.99,8.22.15,14.04-5.9,14.08-14.65Z"/>
        <path class="cls-2" d="m516.35,600.79c0-7,.12-14-.05-20.99-.08-3.05.52-4.6,4.05-4.36,6.96.48,13.97-.49,20.94.68,13.68,2.31,21.86,12.44,21.18,26.38-.63,12.91-10.21,22.98-23.13,23.8-6.64.42-13.32.05-19.98.21-2.49.06-3.07-.96-3.04-3.24.11-7.5.04-14.99.04-22.49Zm12.04.54c0,2.66,0,5.33,0,7.99q0,7.4,7.23,6.92c9.22-.62,14.06-6.39,13.84-16.52-.19-8.43-5.44-13.33-14.52-13.52q-6.55-.14-6.56,6.63c0,2.83,0,5.66,0,8.49Z"/>
        <path class="cls-2" d="m589.49,600.97c0-7.33.03-14.66-.01-21.99-.01-2.03.15-3.62,2.86-3.5,7.47.34,14.97-.57,22.43.65,13.76,2.26,21.68,12.22,20.92,26.42-.72,13.46-10.17,23.18-23.48,23.81-6.48.31-12.99-.03-19.48.16-2.81.08-3.32-1.14-3.28-3.57.11-7.33.04-14.66.04-21.99Zm12.1.46h-.02c0,4,0,8,0,12,0,1.36-.08,2.73,1.89,2.81,6.11.26,12.27.17,16.44-5.15,4.14-5.29,4.57-11.37,1.7-17.42-2.77-5.84-7.88-7.37-14.01-7.6-4.62-.17-6.8.78-6.08,5.88.43,3.11.08,6.32.08,9.49Z"/>
        <path class="cls-2" d="m317.51,600.77c0-6.99.11-13.98-.06-20.97-.07-3.05.55-4.6,4.07-4.36,6.95.47,13.97-.6,20.9.76,5.91,1.16,10.21,4.54,11.67,10.3,1.54,6.12.49,12.2-4.92,16.19-3.27,2.4-2.87,4.02-.6,6.58,1.87,2.11,3.2,5.14,5.99,5.79,5.29,1.22,4,4.85,3.76,8.28-.18,2.52-1.47,3.31-3.97,3.09-5.75-.51-9.98-3.4-13.15-7.99-2.08-3-4.06-6.08-5.86-9.26-1.03-1.82-2.47-2-4.19-1.8-2.43.28-1.5,2.22-1.54,3.5-.12,3.99-.21,7.99,0,11.98.15,2.81-.75,3.65-3.61,3.68-8.49.09-8.49.23-8.5-8.31,0-5.82,0-11.65,0-17.47Zm15.9-15.38c-1.79-.26-4.87-.31-3.73,3.81.85,3.07-3.65,8.66,3.74,8.92,5.43.2,8.41-2,8.6-6.13.19-4.21-2.37-6.44-8.61-6.6Z"/>
        <path class="cls-2" d="m779.28,601.18c0-7.32-.01-14.65,0-21.97,0-1.79-.41-3.84,2.56-3.7,7.3.35,14.63-.7,21.91.68,6.13,1.17,10.3,4.53,11.88,10.62,1.66,6.37.08,12.12-5.16,16.07-3.04,2.29-2.67,3.72-.59,6.1,2.07,2.37,3.77,4.98,6.7,6.57,1.28.69,3.88-.15,3.77,2.35-.12,2.64-.48,5.32-1.18,7.85-.36,1.3-2.05.71-3.14.65-5.52-.33-9.8-2.94-12.91-7.44-2.17-3.14-4.27-6.34-6.21-9.63-1.02-1.72-2.36-2.27-4.13-1.93-2.26.43-1.34,2.34-1.39,3.62-.13,3.66-.24,7.34.03,10.98.25,3.35-.61,4.68-4.3,4.59-7.85-.19-7.85.03-7.85-7.92,0-3,0-5.99,0-8.99,0-2.83,0-5.66,0-8.49Zm11.98-9.57c.72,2.58-1.94,6.99,4.17,6.6,5.44-.35,8.08-2.16,8.05-6.53-.04-4.44-2.45-5.94-8.16-6.34-5.78-.41-3.46,3.64-4.05,6.28Z"/>
        <path class="cls-2" d="m364.99,601.33c0-7.16.18-14.33-.07-21.49-.13-3.62,1.23-4.79,4.61-4.37,1.31.16,2.67.16,3.99.03,2.63-.27,3.57.89,3.51,3.44-.11,4.5.06,9-.07,13.49-.07,2.51.7,3.62,3.4,3.53,5.16-.16,10.33-.2,15.49.02,3.05.13,3.63-1.21,3.53-3.86-.17-4.33.07-8.67-.11-12.99-.12-2.82.84-3.74,3.7-3.68,10.29.24,8.26-.93,8.34,8,.12,12.83-.14,25.66.13,38.48.08,3.91-1.19,5.08-4.81,4.59-1.47-.2-3-.14-4.49-.01-2.2.18-2.91-.77-2.85-2.9.11-4.49-.18-9.01.11-13.49.21-3.23-1.01-3.97-3.98-3.84-4.99.22-10,.19-14.99,0-2.59-.09-3.56.7-3.46,3.35.17,4.32-.13,8.67.1,12.99.17,3.11-.98,3.91-3.98,3.93-8.1.03-8.1.18-8.09-7.73,0-5.83,0-11.66,0-17.49Z"/>
        <path class="cls-2" d="m485.29,575.51c5.8-1.6,7.56,1.62,9.15,6.3,4.55,13.35,9.37,26.61,14.52,39.73,1.81,4.61.5,5.49-3.7,4.96-.98-.12-2.02-.17-2.99,0-3.46.6-5.41-.8-5.82-4.25-.63-5.28-3.74-6.8-8.62-5.94-1.29.23-2.69.23-3.98,0-5.84-1.07-9.37.83-10.36,7.06-.41,2.55-9.96,4.62-12,2.84-.98-.86-.3-1.9,0-2.71,5.54-15.29,11.19-30.54,16.71-45.83,1.54-4.26,5.05-.86,7.1-2.15Zm-.04,13.58c-1.44,4.07-2.51,6.97-3.49,9.89-2.76,8.29-2.45,8.54,6.42,7.68,2.53-.25,2.65-1.29,2.01-3.15-1.48-4.35-2.98-8.69-4.94-14.42Z"/>
        <path class="cls-2" d="m422.22,601.33c0-7.32.07-14.65-.03-21.97-.04-2.56.4-3.98,3.5-3.92,8.82.17,17.65.19,26.46,0,5.16-.11,3.17,3.58,3.37,5.92.19,2.25,1.08,5.2-3.25,4.95-4.81-.27-9.66.16-14.47-.13-4.75-.29-3.25,3-3.41,5.33-.18,2.52-.57,5.07,3.57,4.72,4.13-.36,8.35.22,12.47-.17,4.65-.44,4,2.47,4.06,5.29.06,2.78.41,5.31-3.89,4.94-4.3-.37-8.66.13-12.97-.14-4.39-.28-3.23,2.75-3.22,4.98.01,2.2-1.28,5.26,3.14,5.06,4.82-.23,9.67.24,14.47-.1,4.12-.29,4.25,1.94,3.95,4.87-.26,2.51,1.27,5.8-3.73,5.61-8.81-.33-17.64-.21-26.46-.04-2.91.06-3.67-.96-3.61-3.72.16-7.15.06-14.31.06-21.47Z"/>
        <path class="cls-2" d="m274.15,601.17c0-7.32.11-14.64-.05-21.96-.06-2.81.84-3.8,3.68-3.76,8.81.13,17.63.15,26.45,0,2.76-.05,3.25,1.09,3.31,3.53.2,7.28.3,7.28-6.93,7.28-2.83,0-5.66,0-8.48,0-5.67,0-7.63,2.85-5.92,8.27.58,1.84,1.87,1.6,3.15,1.61,4.49.03,8.99.21,13.47-.04,4.68-.26,3.26,3.04,3.43,5.39.18,2.52.49,5.05-3.56,4.79-4.47-.29-8.98.08-13.47-.1-3.99-.16-3.13,2.63-3,4.74.13,2.11-1.43,5.38,3.01,5.26,4.99-.14,10,.23,14.97-.11,4.51-.31,3.76,2.6,3.66,5.14-.09,2.35,1.27,5.49-3.43,5.35-8.98-.26-17.97-.16-26.95-.03-2.6.04-3.46-.77-3.41-3.4.15-7.32.05-14.64.05-21.96h.02Z"/>
        <path class="cls-1" d="m615.84,366.29c-3.02-10.02-5.73-19.41-8.75-28.69-.61-1.87-.58-2.97.73-4.37,8.64-9.21,17.21-18.48,26.46-28.44,2.16,7.9,3.76,15.21,6.21,22.22,2.22,6.35.41,11.12-3.47,16.1-6.34,8.13-12.94,15.95-21.18,23.18Z"/>
        <path class="cls-2" d="m843.86,627.63c-5.05-.03-9.84-1.08-14.46-3.23-2.63-1.23-2.97-2.63-1.53-4.93.79-1.26,1.56-2.58,2.08-3.97.91-2.47,2.22-2.3,4.19-1.16,3.5,2.04,7.34,3.14,11.42,2.88,2.41-.15,4.67-.94,5.06-3.85.34-2.61-1.34-3.92-3.44-4.87-3.93-1.77-7.95-3.35-11.77-5.32-5.88-3.03-8.05-8.09-7.22-14.55.82-6.33,4.6-10.26,10.47-12.01,7.44-2.22,14.5-1.29,20.6,3.93,2.45,2.09,3.37,3.96-.46,5.88-3.32,1.67-6.14,4.54-9.81.42-1.14-1.28-3.49-.74-5.31-.53-1.61.18-2.83,1.08-3.26,2.67-.5,1.83.19,3.35,1.88,4.17,2.38,1.16,4.81,2.23,7.28,3.17,10.65,4.07,14.8,9.52,13.34,17.66-1.63,9.08-8.04,13.67-19.07,13.64Z"/>
        <path class="cls-2" d="m244.62,612.37c3.87-11.99,7.27-22.57,10.69-33.14.97-2.98,10.27-5.53,12.58-3.43.91.83.34,1.79.01,2.72-5.43,15.33-10.9,30.64-16.22,46.01-.58,1.67-1.5,1.82-2.9,1.96-10.49,1.05-10.71.95-14.15-8.75-4.43-12.51-8.77-25.05-13.29-37.53-1.24-3.42-1.23-4.99,3.25-4.82,8,.29,8.03.01,10.5,7.58,3.03,9.27,6.01,18.56,9.52,29.4Z"/>
        <path class="cls-1" d="m698.05,615.38c-4.59-.36-5.33.79-3.72,5.24.36.98,1.75,2.03.51,3.12-1.25,1.1-2.88.75-4.24.15-4.34-1.92-5.08-1.48-5.11,3.3,0,1.1.68,2.45-.78,3.07-1.65.7-2.3-.77-3.18-1.72-3.06-3.34-4.4-3.1-6.13,1.04-.49,1.17-.45,2.72-2.33,2.75-2.01.03-1.75-1.72-2.19-2.82-1.63-3.98-3.62-4.43-6.08-.97-.86,1.22-1.41,2.05-2.94,1.78-2.01-.35-1.41-1.93-1.46-3.15-.2-5.25-.93-5.63-5.72-3.26-.92.45-1.95,1.93-2.98.87-.94-.97-.51-2.39,0-3.74,1.99-5.2,1.2-6.32-4.11-5.35-1.44.26-2.2.19-2.86-.88-.84-1.36.29-2.03,1.09-2.9,3.8-4.15,3.64-4.7-1.98-6.44-1-.31-2-.44-2.21-1.64-.25-1.46.78-1.9,1.89-2.49,4.98-2.66,4.97-2.73.17-6.39-1.1-.83-1.22-1.88-1.17-3.08.07-1.93,1.57-1.24,2.58-1.42,1.7-.31,3.87.8,4.95-1.33,1.21-2.4-1.26-3.48-2.17-5.1-.42-.75-2.02-.93-1.24-2.24.55-.91,1.6-1.16,2.64-.94.81.17,1.6.46,2.4.7,4.3,1.3,5.17.56,4.62-3.68-.16-1.24-1.94-2.57.34-3.83,2.02-1.12,2.67.6,3.73,1.37,3.47,2.52,4.47,2.13,5.08-2.25.18-1.31.02-2.56,1.78-3.1,2.34-.72,2.39,1.26,3.07,2.36,2.44,3.92,3.3,3.98,5.56.23.72-1.19.86-3.03,3.01-2.63,1.9.35,1.44,1.94,1.74,3.14,1.16,4.63,1.75,4.82,5.8,1.82.88-.65,1.5-1.86,2.95-1.07,1.58.86,1.16,2.23.97,3.51-.77,5.1-.47,5.39,4.45,4.04,1.26-.34,2.54-1.06,3.53.46,1.01,1.54-.28,2.5-1.01,3.5-2.58,3.52-1.61,5.06,2.62,5.07,1.24,0,2.82-.49,3.43,1.23.68,1.92-.9,2.54-2.09,3.45-3.55,2.71-3.43,3.72.88,5.94,1.26.65,2.38,1.09,2.23,2.81-.16,1.8-1.61,1.29-2.62,1.6-4.51,1.36-4.84,2.5-1.91,5.88.86.99,2.7,1.61,1.55,3.61-1.06,1.83-2.35.31-3.35.43Zm-25.02-36.01c-12.11.03-21.75,9.79-21.68,21.93.07,11.72,9.86,21.5,21.65,21.65,11.92.14,21.9-9.82,21.87-21.84-.03-12.2-9.64-21.77-21.85-21.74Z"/>
        <path class="cls-1" d="m766.83,615.38c-4.58-.22-5.29.81-3.72,5.15.4,1.1,1.87,2.26.31,3.53-1.35,1.1-2.4.06-3.6-.53-4.21-2.07-5.23-1.35-5.38,3.71-.04,1.26.58,2.89-1.38,3.17-1.11.16-1.88-.26-2.71-1.48-2.66-3.92-4.22-3.6-6.08.74-.47,1.11-.57,2.7-2.45,2.66-1.69-.04-1.58-1.53-2.01-2.47-2.05-4.5-3.05-4.75-6.31-1.28-.89.95-1.54,2.41-3.18,1.67-1.65-.74-.85-2.32-.9-3.54-.18-4.56-1.29-5.24-5.39-3.17-1.27.64-2.49,2.11-3.96.59-1.19-1.23-.07-2.35.43-3.56,1.7-4.14-.91-5.05-4.17-5.16-1.11-.04-2.31.68-2.85-.9-.49-1.41.64-2.06,1.41-2.91,3.38-3.7,3.06-4.91-1.6-6.12-1.19-.31-2.83.1-2.87-1.95-.04-1.85,1.5-1.92,2.65-2.48,4.37-2.16,4.44-3.15.38-6.21-1.06-.8-2.41-1.39-1.79-3.1.5-1.37,1.73-1.25,2.91-1.37,5.53-.58,5.58-.69,2.71-5.68-.58-1.01-1.38-1.84-.35-3.1,1.04-1.26,2.08-.53,3.14-.25,5.37,1.38,5.43,1.34,4.61-4.43-.16-1.16-.53-2.18.86-3,1.46-.86,2.04.19,2.95.86,4.4,3.25,4.78,3.12,5.82-2.4.25-1.32.58-2.13,1.95-2.41,1.23-.26,1.69.45,2.33,1.32,3.44,4.72,3.52,4.73,6.63.14.73-1.08,1.27-1.75,2.74-1.38,1.64.4,1.33,1.6,1.53,2.7.88,4.94,1.7,5.24,5.79,2.14.88-.67,1.48-1.82,2.94-1,1.61.9,1.09,2.22.9,3.49-.8,5.25-.61,5.44,4.59,4.02,1.29-.35,2.5-.96,3.49.59.89,1.4-.28,2.12-.85,3.05-2.54,4.18-2.2,4.97,2.35,5.4,1.4.13,3.16-.48,3.58,1.71.34,1.76-1.15,2.19-2.17,2.95-3.61,2.71-3.49,3.9.68,5.94,1.16.57,2.67.67,2.64,2.5-.03,2.01-1.62,1.67-2.84,1.99-4.53,1.21-4.92,2.45-1.87,5.82.86.95,2.33,1.67,1.58,3.28-.76,1.62-2.2,1.02-3.48.78Zm-25.11-36c-11.92.04-21.39,9.57-21.44,21.57-.05,12.1,9.64,21.94,21.67,22.01,11.97.07,21.71-9.81,21.68-21.98-.03-12.19-9.62-21.65-21.91-21.6Z"/>
        <path class="cls-1" d="m419.41,364.89c-10.46-9.11-18.49-19.45-25.45-30.68-.47-.75-.65-1.97-.42-2.83,2.32-8.61,3.55-17.55,7.33-26.36,9.03,9.71,17.71,19.05,26.41,28.37,1.01,1.08,1.29,2.2.85,3.63-2.87,9.11-5.71,18.23-8.72,27.87Z"/>
        <path class="cls-1" d="m442.88,690.75c-2.75,1.25-4.08.11-5.4-1.68-2.72-3.69-5.61-7.24-8.45-10.84-.68-.87-1.17-2.3-2.63-1.73-1.46.57-.72,2.03-.76,3.07-.11,3.16-.04,6.33-.06,9.49,0,.96.14,2.07-1.31,2.2-1.71.16-1.82-.97-1.82-2.22,0-9.32.04-18.65-.02-27.97-.01-2.03.93-2.58,2.74-2.49,2.99.15,6.01,0,8.96.38,5.78.73,8.29,3.22,8.49,7.94.22,5.24-1.82,7.62-7.81,9.11-.75.19-1.51.35-2.73.63,3.75,4.9,7.24,9.46,10.8,14.11Zm-17.29-23.72q0,6.06,4.74,6.05c6.07-.02,8.95-1.79,9-5.56.05-3.85-2.36-4.98-8.91-5.38-4.5-.28-5.59,1.52-4.83,4.89Z"/>
        <path class="cls-1" d="m603.32,658.14c3.59-.2,7.76,1.13,11.1,4.55.68.7,2.18,1.33,1.07,2.75-1.2,1.55-2.28.71-3.32-.27-3.96-3.72-8.69-4.9-13.81-3.41-5.51,1.6-9.2,5.2-9.99,11.17-.77,5.81,1.09,10.66,6.11,13.75,5.07,3.12,10.43,2.91,15.64.04.72-.39,1.36-.96,1.96-1.53,1.04-.99,2.03-1.85,3.27-.29,1.13,1.42-.12,2.04-.95,2.76-5.51,4.79-11.94,5.58-18.57,3.42-5.71-1.86-9.39-6.03-10.68-12.11-2.46-11.57,5.09-20.84,18.17-20.83Z"/>
        <path class="cls-1" d="m366.41,675.1c0-4.49.05-8.99-.03-13.48-.03-1.97.37-3.12,2.71-3.06,4.49.12,8.99.02,13.48.02,1.39,0,2.78.05,2.66,2.04-.13,2.13-1.78,1.57-2.98,1.6-2.83.07-5.71.36-8.48-.05-4.39-.65-4.13,2.57-4.02,4.89.11,2.16-.77,5.76,3.85,5.15,2.95-.38,5.98-.11,8.98-.05,1.09.02,2.47-.22,2.52,1.56.05,1.8-1.3,1.64-2.43,1.65-2.83.04-5.69.27-8.48-.04-3.67-.41-4.4,1.13-4.34,4.49.13,8.2-.02,8.05,8.17,8.29,2.34.07,6.67-1.76,6.72,1.51.05,3.58-4.27,1.57-6.51,1.62-11.83.26-11.83.13-11.83-11.64,0-1.5,0-3,0-4.49Z"/>
        <path class="cls-1" d="m654.39,691.34c0-9.52.23-18.63-.1-27.73-.15-4.24,1.19-5.51,5.29-5.1,3.63.36,7.32.06,10.99.06,1,0,2.09-.07,2.51,1.12.43,1.22-.27,2.27-.79,3.29-.88,1.74-1.96.17-2.69-.11-3.4-1.31-7.01-1.03-10.26-.42-3.81.72-1.16,4.42-1.73,6.71-.49,1.95.38,3.09,2.67,3,3.33-.13,6.66-.04,9.99,0,1.12.01,2.47-.23,2.52,1.56.05,1.77-1.21,1.66-2.39,1.66-3.33,0-6.67.09-9.99-.02-2.11-.07-2.79.63-2.93,2.83-.63,9.84-.72,9.7,8.97,9.94,2.07.05,5.99-1.87,6.02,1.72.02,2.77-3.75,1.29-5.79,1.41-4.14.26-8.31.08-12.29.08Z"/>
        <path class="cls-1" d="m716.93,658.2c2.83-.28,5.1,1.25,7.05,3.48.77.89.86,1.69-.02,2.59-.95.96-1.69.64-2.48-.18-.58-.59-1.16-1.2-1.83-1.67-2.17-1.55-4.42-1.69-6.27.38-1.88,2.1-1.4,4.49.43,6.26,2.25,2.19,4.94,3.93,7.31,6.01,5.32,4.65,6.08,10.25,2.02,14.25-4.1,4.04-11.26,3.34-15.44-1.45-1.07-1.23-2.04-2.36-.4-3.76,1.56-1.33,2.32.27,3.23,1.04,1.14.95,2.01,2.39,3.3,2.97,2.66,1.2,5.26.73,7.2-1.64,1.9-2.32,1.51-4.7-.42-6.76-2.48-2.66-5.24-4.91-8.39-6.88-3.5-2.18-4.11-6.03-2.93-9.89,1.07-3.52,3.83-4.8,7.64-4.75Z"/>
        <path class="cls-1" d="m319.15,658.2c2.99-.28,5.29,1.16,7.24,3.42.9,1.04,1.33,1.89-.28,2.68-1.01.5-1.58,1.36-2.65-.34-1.85-2.9-4.77-3.98-7.48-1.21-2.91,2.98-.76,5.45,1.65,7.53,2.51,2.17,5.26,4.08,7.6,6.4,2.61,2.58,3.95,5.74,2.46,9.5-1.43,3.62-4.3,5.57-7.97,5.84-3.87.28-6.99-1.48-9.26-4.76-.91-1.32-1.1-2.55.16-3.44,1.49-1.06,1.8.78,2.54,1.45.61.55,1.02,1.32,1.65,1.84,2.69,2.22,5.58,2.29,8.1-.06,2.5-2.33,2.19-5.29.01-7.55-2.86-2.97-6.26-5.42-9.25-8.28-2.51-2.4-3.16-5.48-1.79-8.68,1.3-3.03,3.79-4.51,7.26-4.34Z"/>
        <path class="cls-1" d="m493.03,683.48c3.24-7.36,6.23-14.14,9.22-20.92.47-1.06.81-2.18,1.41-3.16.6-.98,1.78-1.03,2.68-.68,1.57.6.42,1.63.09,2.4-4.31,10-8.64,19.98-13.42,31-4.73-10.99-9.06-21.03-13.35-31.08-.36-.85-.83-1.98.66-2.38,1.43-.38,2.21.56,2.69,1.65,1.59,3.61,3.08,7.27,4.64,10.9,1.68,3.89,3.4,7.77,5.37,12.27Z"/>
        <path class="cls-1" d="m547.31,675.04c0,4.48.01,8.96-.01,13.44,0,1.27.31,2.87-1.79,2.78-1.77-.08-1.43-1.51-1.44-2.59-.03-9.13-.03-18.25,0-27.38,0-1.09-.2-2.57,1.5-2.59,2.03-.03,1.72,1.66,1.73,2.91.04,4.48.02,8.96.01,13.44Z"/>
      </g>
    </g>
  </g>
</svg>