<?xml version="1.0" encoding="UTF-8"?>
<svg id="Capa_2" data-name="Capa 2" xmlns="http://www.w3.org/2000/svg" viewBox="0 0 283.24 392.6">
  <defs>
    <style>
      .cls-1 {
        fill: #203366;
      }

      .cls-1, .cls-2 {
        stroke-width: 0px;
      }

      .cls-2 {
        fill: #f30102;
      }
    </style>
  </defs>
  <g id="Capa_2-2" data-name="Capa 2">
    <g id="Capa_1-2" data-name="Capa 1-2">
      <g id="PIqhzd">
        <g>
          <path class="cls-1" d="m36.36,200.54c5.98-1.79,11.55-5,17.39-6.66,10.02-2.84,19.63-6.7,29.4-10.13,18.38-6.44,36.64-13.21,54.94-19.88,1.11-.41,2.16-.8,3.35-.52-.03,35.35-.08,70.7-.07,106.05,0,5.3.25,10.6.38,15.9-1.54,2.18-1.71-.34-2.01-.77-6.41-9.29-13.02-18.45-18.89-28.07-1.92-3.14-3.96-4.66-7.23-4.99-9.07-.9-17.61-4.26-26.57-5.67-6.79-1.07-13.62-2.06-20.31-3.6-4.1-.94-8.08-2.45-12.21-3.43-2.42-.58-3.32-.19-3.51,2.31-.46,6.11-1.07,12.21-1.62,18.31-.2,2.23,1.7,3.13,2.94,4.34,17.69,17.14,35.37,34.3,53.23,51.26,2.6,2.46,2.92,4.51,1.93,7.75-5.56,18.23-10.9,36.53-16.29,54.81-1.05,3.56-1.99,7.14-2.97,10.72-.88,3.21-2.21,4.55-5.86,2.78-10.05-4.86-19.61-10.48-28.63-17.07-2.41-1.76-2.85-3.41-1.99-6.29,3.09-10.31,5.65-20.77,8.86-31.04.97-3.1.33-4.85-1.76-6.97-17.62-17.93-34.81-36.31-52.91-53.74-6.33-6.09-6.65-11.82-5.31-19.55,1.88-10.86,5.21-21.35,7.27-32.18,2.22-11.73,5.23-23.47,7.78-35.22,1.33-6.13,2.31-12.33,4.58-18.96,6.17,5.31,12.14,10.47,18.12,15.62,1.33,1.14.54,2.36.29,3.65-.72,3.72-2.55,7.21-2.24,11.13l-.19.05.09.04.02.02Z"/>
          <path class="cls-2" d="m141.74,285.32c-.13-5.3-.38-10.6-.38-15.9,0-35.35.04-70.7.07-106.05,6,.76,11.36,3.53,16.94,5.53,28.43,10.19,56.79,20.57,85.19,30.87.93.34,1.91.52,3.59.96-1-3.98-1.8-7.58-2.83-11.11-.56-1.91-.61-3.33,1.13-4.78,5.62-4.67,11.1-9.51,17.37-14.92,1.92,8.67,3.73,16.62,5.43,24.59,4.89,22.88,9.68,45.79,14.66,68.65.78,3.57.27,6.03-2.48,8.8-18.87,19.03-37.48,38.32-56.28,57.43-2.24,2.28-2.98,4.24-1.99,7.43,3.18,10.3,5.92,20.74,9.02,31.06,1.03,3.44.58,5.61-2.64,7.82-9.08,6.23-18.5,11.75-28.54,16.26-2.81,1.26-3.84.74-4.71-2.24-6.55-22.45-13.16-44.89-20.05-67.24-1.19-3.87.39-5.81,2.76-8.09,17.53-16.84,34.97-33.77,52.56-50.55,2.27-2.17,3.27-4.22,2.82-7.37-.72-4.94-1.02-9.93-1.5-14.9-.22-2.35-.9-3.44-3.78-2.81-19.93,4.4-39.91,8.62-59.88,12.81-2.81.59-4.66,1.99-6.21,4.4-5.57,8.67-11.29,17.25-17.05,25.8-.88,1.3-1.29,3.15-3.2,3.57l-.02-.02Z"/>
          <path class="cls-1" d="m232.72,179.74c.28,1.2-.03,2.07-1.42,1.78-2.87-.61-5.84-1.05-8.55-2.11-12.81-5.04-25.96-9.04-38.95-13.53-9.51-3.28-19.04-6.41-28.71-9.09-1.97-.55-3.26-1.92-5.06-2.64-5.4-2.15-10.39-2.76-16.16-.48-10.28,4.08-21.05,6.91-31.38,10.89-15.95,6.14-32.59,10.15-48.52,16.27-4.52,1.74-4.25,0-3.56-3.33,6.32-30.81,25.41-50.29,54.36-60.66,36.81-13.19,70.98-7.58,101.83,16.17,14.37,11.06,22.12,26.63,25.79,44.26.17.81.23,1.65.34,2.47h-.01Z"/>
          <path class="cls-1" d="m143.75,0c9.26,19.77,18.13,38.85,27.18,57.85,1.04,2.17.69,3.58-.5,5.39-4.19,6.4-8.18,12.92-12.36,19.32-1.28,1.96-1.82,3.08,1.11,4.08,4.37,1.49,7.02,4.85,8.17,9.36.5,1.96,0,2.83-2.18,2.38-7.76-1.62-15.67-2.25-23.53-1.92-7.16.3-14.38.6-22.2,2.29,1.81-5.62,2.61-10.93,9.04-12.26,2.72-.56,2.37-1.8,1.08-3.75-4.3-6.52-8.36-13.2-12.66-19.72-1.12-1.7-1.36-3-.44-4.93C125.51,39.01,134.45,19.87,143.76,0h0Z"/>
          <path class="cls-1" d="m239.78,366.29c-3.02-10.02-5.73-19.41-8.75-28.69-.61-1.87-.58-2.97.73-4.37,8.64-9.21,17.21-18.48,26.46-28.44,2.16,7.9,3.76,15.21,6.21,22.22,2.22,6.35.41,11.12-3.47,16.1-6.34,8.13-12.94,15.95-21.18,23.18h0Z"/>
          <path class="cls-1" d="m43.35,364.89c-10.46-9.11-18.49-19.45-25.45-30.68-.47-.75-.65-1.97-.42-2.83,2.32-8.61,3.55-17.55,7.33-26.36,9.03,9.71,17.71,19.05,26.41,28.37,1.01,1.08,1.29,2.2.85,3.63-2.87,9.11-5.71,18.23-8.72,27.87h0Z"/>
        </g>
      </g>
    </g>
  </g>
</svg>